<?xml version="1.0" standalone="no"?>
<svg version="1.1" width="246" height="436.5" style="overflow: hidden; height: 410px; width: 246px; background-color: rgb(109, 11, 156);" xmlns="http://www.w3.org/2000/svg"><defs></defs><g style="transform: translate(0px, 0px) rotate(90deg); transform-origin: 41px 41px; background-color: rgb(0, 0, 0);"><path d="M 0 0 L 82 0 L 82 82 L 0 82Z" fill="#6d0b9c"></path><path d="M 82 82 L 41.00000000000001 82 L 41 0 L 82 -4.6611603465862574e-15Z" fill="#23998e"></path><path d="M 68.33333333333333 41 L 68.33333333333333 27.333333333333332 L 82 41 L 68.33333333333333 54.666666666666664Z" fill="#1d5e69"></path></g><g style="transform: translate(0px, 82px) rotate(90deg); transform-origin: 41px 41px; background-color: rgb(0, 0, 0);"><path d="M 0 0 L 82 0 L 82 82 L 0 82Z" fill="#6d0b9c"></path><path d="M 0 0 L 82 0 A 41 41 0 0 0 82 82 L 0 82Z" fill="#23998e"></path><path d="M 9.322320693172515e-15 82.00000000000001 L -9.322320693172515e-15 9.322320693172515e-15 A 41 41 0 0 0 82 -9.322320693172515e-15 L 82.00000000000001 82Z" fill="#7cbc9a"></path></g><g style="transform: translate(0px, 164px) rotate(270deg); transform-origin: 41px 41px; background-color: rgb(0, 0, 0);"><path d="M 0 0 L 82 0 L 82 82 L 0 82Z" fill="#6d0b9c"></path><path d="M 0 41 L 20.5 0 L 41 41Z" fill="#7cbc9a"></path><path d="M 41 41 L 61.5 0 L 82 41Z" fill="#7cbc9a"></path><path d="M 0 82 L 13.666666666666666 41 L 27.33333333333334 41 L 41 82Z" fill="#1d5e69"></path><path d="M 82 41 L 61.5 82 L 41 41Z" fill="#1d5e69"></path></g><g style="transform: translate(0px, 246px) rotate(90deg); transform-origin: 41px 41px; background-color: rgb(0, 0, 0);"><path d="M 0 0 L 82 0 L 82 82 L 0 82Z" fill="#6d0b9c"></path><path d="M 9.322320693172515e-15 82.00000000000001 L 0 41.000000000000014 L 82 -9.322320693172515e-15 L 82.00000000000001 82Z" fill="#23998e"></path><path d="M 27.33333333333334 82 L 27.333333333333332 68.33333333333333 L 54.66666666666666 54.666666666666664 L 54.66666666666668 82Z" fill="#f3e1b6"></path></g><g style="transform: translate(0px, 328px) rotate(0deg); transform-origin: 41px 41px; background-color: rgb(0, 0, 0);"><path d="M 0 0 L 82 0 L 82 82 L 0 82Z" fill="#6d0b9c"></path><path d="M 41 0 L 82 0 A 20.5 20.5 0 0 0 82 41 L 41 41Z" fill="#fa3419"></path><path d="M 41 41 L 41 61.5 L 0 61.5 L -2.3305801732931287e-15 41Z" fill="#23998e"></path><path d="M 82 41 L 82 61.5 L 41 61.5 L 41 41Z" fill="#7cbc9a"></path><path d="M 41 41 L 2.3305801732931287e-15 41 A 20.5 20.5 0 0 0 -2.3305801732931287e-15 2.3305801732931287e-15 L 41 -2.3305801732931287e-15Z" fill="#23998e"></path></g><g style="transform: translate(82px, 0px) rotate(270deg); transform-origin: 41px 41px; background-color: rgb(0, 0, 0);"><path d="M 0 0 L 82 0 L 82 82 L 0 82Z" fill="#6d0b9c"></path><path d="M 0 0 A 20.5 20.5 0 0 1 2.510525938252074e-15 41 L 0 20.5Z" fill="#fa3419"></path><path d="M 4.6611603465862574e-15 82 A 20.5 20.5 0 0 1 41.00000000000001 82 L 20.500000000000007 82Z" fill="#23998e"></path><path d="M 41 0 A 20.5 20.5 0 0 1 41.00000000000001 41 L 41 20.5Z" fill="#f3e1b6"></path><path d="M 41.00000000000001 82 A 20.5 20.5 0 0 1 82 82 L 61.5 82Z" fill="#1d5e69"></path></g><g style="transform: translate(82px, 82px) rotate(270deg); transform-origin: 41px 41px; background-color: rgb(0, 0, 0);"><path d="M 0 0 L 82 0 L 82 82 L 0 82Z" fill="#6d0b9c"></path><path d="M 0 41.000000000000014 L -9.322320693172515e-15 9.322320693172515e-15 L 82 -9.322320693172515e-15 L 82 40.99999999999999Z" fill="#f3e1b6"></path><path d="M 54.666666666666664 68.33333333333333 L 54.666666666666664 82 L 27.333333333333332 82 L 27.333333333333332 68.33333333333333Z" fill="#f3e1b6"></path></g><g style="transform: translate(82px, 164px) rotate(90deg); transform-origin: 41px 41px; background-color: rgb(0, 0, 0);"><path d="M 0 0 L 82 0 L 82 82 L 0 82Z" fill="#6d0b9c"></path><path d="M 0 0 L 41 0 A 41 41 0 0 0 41 82 L 0 82Z" fill="#1d5e69"></path><path d="M 0 27.333333333333332 L 27.333333333333332 27.333333333333332 L 27.333333333333332 54.666666666666664 L 0 54.666666666666664Z" fill="#fa3419"></path></g><g style="transform: translate(82px, 246px) rotate(360deg); transform-origin: 41px 41px; background-color: rgb(0, 0, 0);"><path d="M 0 0 L 82 0 L 82 82 L 0 82Z" fill="#6d0b9c"></path><path d="M 41 0 A 41 41 0 1 1 0 41.000000000000014 L 41 41Z" fill="#fa3419"></path><path d="M 54.66666666666668 54.66666666666666 L 27.333333333333332 45.55555555555556 L 27.333333333333332 36.44444444444445 L 54.66666666666666 27.33333333333333Z" fill="#1d5e69"></path></g><g style="transform: translate(82px, 328px) rotate(360deg); transform-origin: 41px 41px; background-color: rgb(0, 0, 0);"><path d="M 0 0 L 82 0 L 82 82 L 0 82Z" fill="#6d0b9c"></path><path d="M 0 0 A 41 41 0 0 1 5.021051876504148e-15 82 L 0 41Z" fill="#fa3419"></path><path d="M 41 27.333333333333332 L 54.666666666666664 27.333333333333332 L 41 54.666666666666664 L 27.333333333333332 54.666666666666664Z" fill="#7cbc9a"></path></g><g style="transform: translate(164px, 0px) rotate(0deg); transform-origin: 41px 41px; background-color: rgb(0, 0, 0);"><path d="M 0 0 L 82 0 L 82 82 L 0 82Z" fill="#6d0b9c"></path><path d="M 4.6611603465862574e-15 41.00000000000001 L -4.6611603465862574e-15 4.6611603465862574e-15 L 41 20.499999999999996 L 41.00000000000001 41Z" fill="#fa3419"></path><path d="M 0 41 L 41 41 L 20.5 82 L 0 82Z" fill="#1d5e69"></path><path d="M 82 41 L 41 41 L 61.5 0 L 82 -2.3305801732931287e-15Z" fill="#fa3419"></path><path d="M 82 41 L 82 82 L 41 61.5 L 41 41Z" fill="#1d5e69"></path></g><g style="transform: translate(164px, 82px) rotate(360deg); transform-origin: 41px 41px; background-color: rgb(0, 0, 0);"><path d="M 0 0 L 82 0 L 82 82 L 0 82Z" fill="#6d0b9c"></path><path d="M 41 41 L -2.3305801732931287e-15 2.3305801732931287e-15 L 41 -2.3305801732931287e-15Z" fill="#1d5e69"></path><path d="M 4.6611603465862574e-15 82 L 41 41 L 41.00000000000001 82Z" fill="#fa3419"></path><path d="M 82 -2.3305801732931287e-15 L 41 41 L 41 2.3305801732931287e-15Z" fill="#7cbc9a"></path><path d="M 41 41 L 82 82 L 41 82Z" fill="#23998e"></path></g><g style="transform: translate(164px, 164px) rotate(0deg); transform-origin: 41px 41px; background-color: rgb(0, 0, 0);"><path d="M 0 0 L 82 0 L 82 82 L 0 82Z" fill="#6d0b9c"></path><path d="M 41 41 L 20.5 20.5 L 2.3305801732931287e-15 41 L 0 20.500000000000004 L 20.5 0 L 41 20.5Z" fill="#f3e1b6"></path><path d="M 0 41 L 20.5 61.5 L 41 41 L 41 61.5 L 20.5 82 L 0 61.5Z" fill="#7cbc9a"></path><path d="M 41 0 L 61.5 20.5 L 82 0 L 82 20.5 L 61.5 41 L 41 20.5Z" fill="#1d5e69"></path><path d="M 82 82 L 61.5 61.5 L 41 82 L 41 61.5 L 61.5 41 L 82 61.5Z" fill="#1d5e69"></path></g><g style="transform: translate(164px, 246px) rotate(180deg); transform-origin: 41px 41px; background-color: rgb(0, 0, 0);"><path d="M 0 0 L 82 0 L 82 82 L 0 82Z" fill="#6d0b9c"></path><path d="M 0 0 L 82 0 L 82 41 L 41 41 L 41 82 L 0 82Z" fill="#1d5e69"></path><path d="M 82 82 L 4.6611603465862574e-15 82 L 0 41.00000000000001 L 41 41 L 41 0 L 82 -4.6611603465862574e-15Z" fill="#7cbc9a"></path></g><g style="transform: translate(164px, 328px) rotate(360deg); transform-origin: 41px 41px; background-color: rgb(0, 0, 0);"><path d="M 0 0 L 82 0 L 82 82 L 0 82Z" fill="#6d0b9c"></path><path d="M 9.322320693172515e-15 82.00000000000001 L 0 41.000000000000014 L 82 40.99999999999999 L 82.00000000000001 82Z" fill="#fa3419"></path><path d="M 54.66666666666668 54.66666666666666 L 27.33333333333334 54.66666666666668 A 13.666666666666666 13.666666666666666 0 0 0 27.33333333333333 27.33333333333334 L 54.66666666666666 27.33333333333333Z" fill="#1d5e69"></path></g><g id="two-33" transform="matrix(1 0 0 1 0 0)" opacity="1"></g></svg>