<svg width="91" height="88" viewBox="0 0 91 88" fill="none" xmlns="http://www.w3.org/2000/svg">
<path d="M66.458 64.632H90.271V45.03H60.22V56.999L66.458 64.632ZM46.642 56.998V87.05H75.248C83.547 87.05 90.271 80.321 90.271 72.02V67.637H65.025L56.346 56.998H46.642ZM60.22 42.021H90.272V22.413H66.458L60.22 30.046V42.021ZM23.81 64.632L30.049 56.998V45.03H0V64.633H23.81V64.632ZM0 15.021V19.411H25.243L33.928 30.047H43.629V0H15.024C6.724 0 0 6.727 0 15.021ZM23.81 22.413H0V42.021H30.049V30.047L23.81 22.413ZM56.346 30.047L65.025 19.411H90.272V15.021C90.272 6.728 83.547 0 75.249 0H46.642V30.046H56.346V30.047ZM33.928 56.998L25.243 67.637H0V72.02C0 80.321 6.724 87.05 15.023 87.05H43.628V56.998H33.928Z" fill="#f7db23"/>
</svg>
