<?xml version="1.0" standalone="no"?>
<svg version="1.1" width="264" height="470" style="overflow: hidden; height: 396px; width: 264px; background-color: rgb(3, 85, 78);" xmlns="http://www.w3.org/2000/svg"><defs></defs><g style="transform: translate(0px, 0px) rotate(90deg); transform-origin: 66px 66px; background-color: rgb(0, 0, 0);"><path d="M 0 0 L 132 0 L 132 132 L 0 132Z" fill="#03554e"></path><path d="M 66 -3.751665644813329e-15 L 33.00000000000001 66 L -3.751665644813329e-15 3.751665644813329e-15Z" fill="#dcd7c2"></path><path d="M 66 66 L 33.00000000000001 132 L -3.751665644813329e-15 66Z" fill="#9d9382"></path><path d="M 132 -3.751665644813329e-15 L 99 66 L 66 3.751665644813329e-15Z" fill="#fff6c7"></path><path d="M 132 66 L 99 132 L 66 66Z" fill="#ffdbc8"></path></g><g style="transform: translate(0px, 132px) rotate(90deg); transform-origin: 66px 66px; background-color: rgb(0, 0, 0);"><path d="M 0 0 L 132 0 L 132 132 L 0 132Z" fill="#03554e"></path><path d="M 33.00000000000001 66 L 3.751665644813329e-15 66 L 33 0 L 66 -3.751665644813329e-15Z" fill="#ffdbc8"></path><path d="M 33 66 L 66 66 L 33 132 L 0 132Z" fill="#ffdbc8"></path><path d="M 132 33 L 132 66 L 66 33.00000000000001 L 66 3.751665644813329e-15Z" fill="#fff6c7"></path><path d="M 132 99 L 132 132 L 66 99 L 66 66Z" fill="#ffdbc8"></path></g><g style="transform: translate(0px, 264px) rotate(90deg); transform-origin: 66px 66px; background-color: rgb(0, 0, 0);"><path d="M 0 0 L 132 0 L 132 132 L 0 132Z" fill="#03554e"></path><path d="M 0 0 L 132 132 L 0 132Z" fill="#ffdbc8"></path><path d="M 66 66 L 132 132 L 66 132Z" fill="#9d9382"></path></g><g style="transform: translate(132px, 0px) rotate(270deg); transform-origin: 66px 66px; background-color: rgb(0, 0, 0);"><path d="M 0 0 L 132 0 L 132 132 L 0 132Z" fill="#03554e"></path><path d="M 0 0 L 132 0 L 132 132 L 0 132Z" fill="#dcd7c2"></path><path d="M 88.00000000000001 87.99999999999999 L 66 88 A 22 22 0 1 1 88 66 L 88.00000000000001 87.99999999999999Z" fill="#fff6c7"></path></g><g style="transform: translate(132px, 132px) rotate(360deg); transform-origin: 66px 66px; background-color: rgb(0, 0, 0);"><path d="M 0 0 L 132 0 L 132 132 L 0 132Z" fill="#03554e"></path><path d="M 66.00000000000001 66 L 3.751665644813329e-15 44.00000000000001 L -3.751665644813329e-15 22.000000000000004 L 66 -7.503331289626658e-15Z" fill="#dcd7c2"></path><path d="M 66.00000000000001 132 L 3.751665644813329e-15 110.00000000000001 L -3.751665644813329e-15 88.00000000000001 L 66 66Z" fill="#fff6c7"></path><path d="M 132 66 L 66 44.00000000000001 L 66 22.000000000000004 L 132 -7.503331289626658e-15Z" fill="#ffdbc8"></path><path d="M 132 132 L 66 110.00000000000001 L 66 88.00000000000001 L 132 66Z" fill="#fff6c7"></path></g><g style="transform: translate(132px, 264px) rotate(180deg); transform-origin: 66px 66px; background-color: rgb(0, 0, 0);"><path d="M 0 0 L 132 0 L 132 132 L 0 132Z" fill="#03554e"></path><path d="M 7.503331289626658e-15 66.00000000000001 L -7.503331289626658e-15 7.503331289626658e-15 L 32.99999999999999 0 L 66 32.99999999999999 L 33.00000000000001 66Z" fill="#ffc1b2"></path><path d="M 0 66 L 66 66 L 66 99 L 33 132 L 0 99Z" fill="#ffc1b2"></path><path d="M 132 -3.751665644813329e-15 L 132 66 L 99 66 L 66 33.00000000000001 L 99 0Z" fill="#fff6c7"></path><path d="M 66 66 L 132 66 L 132 99 L 99 132 L 66 99Z" fill="#ffdbc8"></path></g><g id="two-100" transform="matrix(1 0 0 1 0 0)" opacity="1"></g></svg>